<svg width="74" height="79" viewBox="0 0 74 79" fill="none" xmlns="http://www.w3.org/2000/svg">
<g filter="url(#filter0_d_77_5040)">
<path d="M52.7627 2.28906L39.8295 21.6316H46.2389L60.66 2.28906H52.7627Z" fill="#428BC1"/>
<path d="M46.239 2.28906L33.4203 21.6316H39.8296L52.7628 2.28906H46.239Z" fill="#E8E8E8"/>
<path d="M39.8296 2.28906L27.0108 21.6316H33.4202L46.2389 2.28906H39.8296Z" fill="#ED4C5C"/>
<path d="M36.6248 70.9608C49.6462 70.9608 60.2022 60.4049 60.2022 47.3835C60.2022 34.3621 49.6462 23.8062 36.6248 23.8062C23.6034 23.8062 13.0475 34.3621 13.0475 47.3835C13.0475 60.4049 23.6034 70.9608 36.6248 70.9608Z" fill="#FFCE31"/>
<path d="M24.8363 17.2822C24.2641 17.2822 23.8062 17.74 23.8062 18.3123V27.9264C23.8062 28.4986 24.2641 28.9564 24.8363 28.9564H48.4137C48.9859 28.9564 49.4437 28.4986 49.4437 27.9264V18.3123C49.4437 17.74 48.9859 17.2822 48.4137 17.2822H24.8363ZM47.3836 24.8361C47.3836 25.4084 46.9258 25.8662 46.3535 25.8662H27.0109C26.4387 25.8662 25.9809 25.4084 25.9809 24.8361V20.4869C25.9809 19.9146 26.4387 19.4568 27.0109 19.4568H46.3535C46.9258 19.4568 47.3836 19.9146 47.3836 20.4869V24.8361Z" fill="#FFCE31"/>
<path opacity="0.5" d="M16.3666 50.1308C16.3666 37.312 26.2096 26.8968 38.7994 25.9812C38.2272 25.9812 37.5404 25.8667 36.9682 25.8667C24.9506 25.8667 15.2221 35.5952 15.2221 47.7272C15.2221 51.2753 16.1377 54.7089 17.6256 57.6847C16.8244 55.2812 16.3666 52.7632 16.3666 50.1308Z" fill="#89664C"/>
<path opacity="0.33" d="M45.6667 65.5814C56.3108 58.4853 59.5155 44.6365 53.3351 33.8779L54.3651 35.2514C61.0034 45.0943 58.2565 58.4854 48.2991 65.2381C45.3233 67.2982 42.0042 68.4428 38.6851 68.7861C41.203 68.0994 43.4921 67.0693 45.6667 65.5814Z" fill="white"/>
<path d="M27.0106 21.6316H33.42L20.4868 2.28906H12.5895L27.0106 21.6316Z" fill="#ED4C5C"/>
<path d="M33.4203 21.6316H39.8297L27.0109 2.28906H20.4871L33.4203 21.6316Z" fill="#E8E8E8"/>
<path opacity="0.5" d="M37.6547 5.49365L34.45 10.3007L42.0039 21.6315H46.2387L47.3832 20.0292L37.6547 5.49365Z" fill="#3E4347"/>
<path d="M39.8296 21.6316H46.2389L33.4202 2.28906H27.0108L39.8296 21.6316Z" fill="#428BC1"/>
<path opacity="0.5" d="M30.6735 40.2876V41.4321C31.8181 41.4321 32.8481 41.2032 33.8782 40.7454V39.1431C32.9626 39.8298 31.9325 40.1731 30.6735 40.2876ZM38.2274 32.8481H39.2575V57.57H38.2274V32.8481ZM42.5766 58.6001V61.8048H30.6735V62.9493H43.6067V58.6001H42.5766Z" fill="#89664C"/>
<path opacity="0.33" d="M39.2571 57.5698H42.4618V58.5999H39.2571V57.5698ZM35.0224 32.848H38.2271V31.8179H33.8778C33.8778 34.2214 31.9321 36.1671 29.5286 36.1671V40.4019C29.872 40.4019 30.2153 40.4019 30.5587 40.2874V37.0827C33.0767 37.1972 35.0224 35.2515 35.0224 32.848ZM35.0224 58.5999V40.2874C34.679 40.5163 34.3357 40.6308 33.9923 40.8597V57.5698H29.6431V61.8046H30.6732V58.5999H35.0224Z" fill="white"/>
</g>
<defs>
<filter id="filter0_d_77_5040" x="-3.90667" y="0" width="81.0633" height="81.0633" filterUnits="userSpaceOnUse" color-interpolation-filters="sRGB">
<feFlood flood-opacity="0" result="BackgroundImageFix"/>
<feColorMatrix in="SourceAlpha" type="matrix" values="0 0 0 0 0 0 0 0 0 0 0 0 0 0 0 0 0 0 127 0" result="hardAlpha"/>
<feOffset dy="3.90667"/>
<feGaussianBlur stdDeviation="1.95333"/>
<feComposite in2="hardAlpha" operator="out"/>
<feColorMatrix type="matrix" values="0 0 0 0 0 0 0 0 0 0 0 0 0 0 0 0 0 0 0.25 0"/>
<feBlend mode="normal" in2="BackgroundImageFix" result="effect1_dropShadow_77_5040"/>
<feBlend mode="normal" in="SourceGraphic" in2="effect1_dropShadow_77_5040" result="shape"/>
</filter>
</defs>
</svg>
