<svg width="58" height="62" viewBox="0 0 58 62" fill="none" xmlns="http://www.w3.org/2000/svg">
<g filter="url(#filter0_d_77_5056)">
<path d="M41.4655 1.79883L31.3015 16.9999H36.3385L47.6718 1.79883H41.4655Z" fill="#428BC1"/>
<path d="M36.3385 1.79883L26.2644 16.9999H31.3014L41.4655 1.79883H36.3385Z" fill="#E8E8E8"/>
<path d="M31.3014 1.79883L21.2273 16.9999H26.2643L36.3384 1.79883H31.3014Z" fill="#ED4C5C"/>
<path d="M28.7831 55.7672C39.0165 55.7672 47.3123 47.4715 47.3123 37.2381C47.3123 27.0048 39.0165 18.709 28.7831 18.709C18.5498 18.709 10.254 27.0048 10.254 37.2381C10.254 47.4715 18.5498 55.7672 28.7831 55.7672Z" fill="#B2C1C0"/>
<path d="M19.5185 13.582C19.0688 13.582 18.709 13.9418 18.709 14.3916V21.9471C18.709 22.3969 19.0688 22.7566 19.5185 22.7566H38.0476C38.4974 22.7566 38.8572 22.3969 38.8572 21.9471V14.3916C38.8572 13.9418 38.4974 13.582 38.0476 13.582H19.5185ZM37.2381 19.5185C37.2381 19.9683 36.8783 20.3281 36.4286 20.3281H21.2275C20.7778 20.3281 20.418 19.9683 20.418 19.5185V16.1006C20.418 15.6508 20.7778 15.291 21.2275 15.291H36.4286C36.8783 15.291 37.2381 15.6508 37.2381 16.1006V19.5185Z" fill="#B2C1C0"/>
<path opacity="0.5" d="M12.8622 39.3969C12.8622 29.3228 20.5977 21.1377 30.4919 20.4181C30.0422 20.4181 29.5025 20.3281 29.0527 20.3281C19.6083 20.3281 11.9628 27.9736 11.9628 37.508C11.9628 40.2964 12.6823 42.9948 13.8517 45.3334C13.222 43.4446 12.8622 41.4657 12.8622 39.3969Z" fill="#3E4347"/>
<path opacity="0.33" d="M35.8888 51.5399C44.2539 45.9632 46.7724 35.0795 41.9153 26.6245C42.1851 26.9843 42.455 27.3441 42.7248 27.7938C47.9417 35.5293 45.783 46.0531 37.9576 51.36C35.619 52.979 33.0105 53.8785 30.402 54.1483C32.3809 53.5187 34.1798 52.7092 35.8888 51.5399Z" fill="white"/>
<path d="M21.2275 16.9999H26.2646L16.1005 1.79883H9.89417L21.2275 16.9999Z" fill="#ED4C5C"/>
<path d="M26.2644 16.9999H31.3015L21.2274 1.79883H16.1004L26.2644 16.9999Z" fill="#E8E8E8"/>
<path opacity="0.5" d="M29.5925 4.31738L27.074 8.09516L33.0105 16.9999H36.3385L37.238 15.7407L29.5925 4.31738Z" fill="#3E4347"/>
<path d="M31.3014 16.9999H36.3384L26.2643 1.79883H21.2273L31.3014 16.9999Z" fill="#428BC1"/>
<path opacity="0.5" d="M28.3332 28.3336C26.4444 28.3336 24.9153 29.8627 24.9153 31.6616H22.4867C22.4867 31.9314 22.3967 32.2013 22.3967 32.4711H25.8147C25.8147 30.5822 27.3438 29.0531 29.2327 29.0531C29.9523 29.0531 30.5819 29.323 31.1216 29.6828C30.492 28.9632 29.5026 28.3336 28.3332 28.3336ZM35.0793 48.5717H22.4867V49.4711H35.9788V46.0531H35.0793V48.5717ZM28.3332 38.4976C26.4444 38.4976 24.9153 40.0267 24.9153 41.9156V45.3336H25.7248V42.815C25.7248 40.9262 27.2539 39.3971 29.1428 39.3971C32.8306 39.3971 35.8888 36.3389 35.8888 32.651C35.8888 30.5822 34.9893 28.6933 33.4602 27.4341C34.4497 28.6034 35.0793 30.1325 35.0793 31.7515C35.0793 35.4394 32.111 38.4976 28.3332 38.4976Z" fill="#3E4347"/>
<path opacity="0.33" d="M25.8146 45.2435H35.0792V46.053H25.8146V45.2435ZM29.2326 35.9789C31.1215 35.9789 32.6506 34.4498 32.6506 32.5609C32.6506 31.3916 32.1109 30.4022 31.2114 29.7726C31.5712 30.3123 31.8411 30.9419 31.8411 31.6615C31.8411 33.5504 30.312 35.0795 28.4231 35.0795C24.7352 35.0795 21.677 38.1377 21.677 41.8255V48.5715H22.4866V42.635C22.4866 38.9472 25.4548 35.9789 29.2326 35.9789ZM29.2326 25.8149C30.8517 25.8149 32.3808 26.4445 33.5501 27.4339C32.2908 25.9948 30.4919 25.0054 28.3331 25.0054C24.6453 25.0054 21.5871 28.0636 21.5871 31.7514H22.4866C22.9363 28.4234 25.7247 25.8149 29.2326 25.8149Z" fill="white"/>
</g>
<defs>
<filter id="filter0_d_77_5056" x="-3.0702" y="0" width="63.7066" height="63.7068" filterUnits="userSpaceOnUse" color-interpolation-filters="sRGB">
<feFlood flood-opacity="0" result="BackgroundImageFix"/>
<feColorMatrix in="SourceAlpha" type="matrix" values="0 0 0 0 0 0 0 0 0 0 0 0 0 0 0 0 0 0 127 0" result="hardAlpha"/>
<feOffset dy="3.0702"/>
<feGaussianBlur stdDeviation="1.5351"/>
<feComposite in2="hardAlpha" operator="out"/>
<feColorMatrix type="matrix" values="0 0 0 0 0 0 0 0 0 0 0 0 0 0 0 0 0 0 0.25 0"/>
<feBlend mode="normal" in2="BackgroundImageFix" result="effect1_dropShadow_77_5056"/>
<feBlend mode="normal" in="SourceGraphic" in2="effect1_dropShadow_77_5056" result="shape"/>
</filter>
</defs>
</svg>
