<svg width="58" height="63" viewBox="0 0 58 63" fill="none" xmlns="http://www.w3.org/2000/svg">
<g filter="url(#filter0_d_77_5072)">
<path d="M41.6958 1.80908L31.4753 17.0946H36.5403L47.9366 1.80908H41.6958Z" fill="#428BC1"/>
<path d="M36.5403 1.80908L26.4102 17.0946H31.4752L41.6957 1.80908H36.5403Z" fill="#E8E8E8"/>
<path d="M31.4752 1.80908L21.3452 17.0946H26.4102L36.5402 1.80908H31.4752Z" fill="#ED4C5C"/>
<path d="M28.943 56.077C39.2332 56.077 47.575 47.7352 47.575 37.445C47.575 27.1548 39.2332 18.813 28.943 18.813C18.6528 18.813 10.3109 27.1548 10.3109 37.445C10.3109 47.7352 18.6528 56.077 28.943 56.077Z" fill="#D3976E"/>
<path d="M19.6269 13.6572C19.1746 13.6572 18.8128 14.019 18.8128 14.4712V22.0688C18.8128 22.521 19.1746 22.8828 19.6269 22.8828H38.2589C38.7111 22.8828 39.0729 22.521 39.0729 22.0688V14.4712C39.0729 14.019 38.7111 13.6572 38.2589 13.6572H19.6269ZM37.4449 19.6267C37.4449 20.0789 37.0831 20.4407 36.6309 20.4407H21.3454C20.8931 20.4407 20.5313 20.0789 20.5313 19.6267V16.1897C20.5313 15.7375 20.8931 15.3757 21.3454 15.3757H36.6309C37.0831 15.3757 37.4449 15.7375 37.4449 16.1897V19.6267Z" fill="#D3976E"/>
<path opacity="0.5" d="M12.9336 39.6156C12.9336 29.4856 20.7121 21.2549 30.6612 20.5314C30.209 20.5314 29.6663 20.4409 29.2141 20.4409C19.7171 20.4409 12.0292 28.1289 12.0292 37.7162C12.0292 40.5201 12.7528 43.2335 13.9286 45.5851C13.2954 43.6857 12.9336 41.6959 12.9336 39.6156Z" fill="#3E4347"/>
<path opacity="0.33" d="M36.0881 51.8262C44.4996 46.2185 47.0322 35.2745 42.148 26.7725L42.962 27.8578C48.208 35.6362 46.0372 46.2185 38.1684 51.5549C35.8168 53.1829 33.1938 54.0874 30.5708 54.3587C32.5607 53.816 34.3696 53.002 36.0881 51.8262Z" fill="white"/>
<path d="M21.3454 17.0946H26.4104L16.1899 1.80908H9.9491L21.3454 17.0946Z" fill="#ED4C5C"/>
<path d="M26.4103 17.0946H31.4753L21.3453 1.80908H16.1898L26.4103 17.0946Z" fill="#E8E8E8"/>
<path opacity="0.5" d="M29.7568 4.34131L27.2243 8.14007L33.1938 17.0943H36.5403L37.4448 15.828L29.7568 4.34131Z" fill="#3E4347"/>
<path d="M31.4752 17.0946H36.5402L26.4102 1.80908H21.3452L31.4752 17.0946Z" fill="#428BC1"/>
<path opacity="0.5" d="M28.4905 28.4905C26.5912 28.4905 25.0536 30.0281 25.0536 31.837H22.6115C22.6115 32.1084 22.5211 32.3797 22.5211 32.6511H25.958C25.958 30.7517 27.4956 29.2141 29.395 29.2141C30.1186 29.2141 30.7517 29.4854 31.2944 29.8472C30.6613 29.1236 29.6663 28.4905 28.4905 28.4905ZM33.8269 37.8065C35.274 36.5403 36.1785 34.7313 36.1785 32.7415C36.1785 30.6612 35.274 28.7619 33.7364 27.4956C34.7314 28.6714 35.3645 30.209 35.3645 31.837C35.3645 33.8269 34.46 35.7263 33.0129 36.9021C34.46 38.1683 35.3645 39.9773 35.3645 41.9671C35.3645 45.6754 32.2893 48.7506 28.581 48.7506C26.9529 48.7506 25.4153 48.1175 24.2395 47.1225C25.5058 48.5697 27.3147 49.5646 29.4854 49.5646C33.1938 49.5646 36.269 46.4894 36.269 42.7811C36.1785 40.8817 35.274 39.0728 33.8269 37.8065Z" fill="#3E4347"/>
<path opacity="0.33" d="M29.3952 25.9581C31.0232 25.9581 32.5608 26.5912 33.7366 27.5861C32.4703 26.139 30.6614 25.144 28.4907 25.144C24.7824 25.144 21.7072 28.2192 21.7072 31.9275H22.6116C23.0639 28.581 25.8677 25.9581 29.3952 25.9581ZM32.7417 32.7416C32.7417 31.5658 32.199 30.5708 31.2945 29.9377C31.6563 30.4804 31.9277 31.1135 31.9277 31.8371C31.9277 33.7365 30.3901 35.2741 28.4907 35.2741V38.7111C28.762 38.7111 29.0334 38.8015 29.3047 38.8015V36.1785C31.2041 36.1785 32.7417 34.641 32.7417 32.7416ZM29.3952 46.3086C31.2945 46.3086 32.8321 44.771 32.8321 42.8716C32.8321 41.6958 32.2894 40.7009 31.385 40.0678C31.7468 40.6104 32.0181 41.2436 32.0181 41.9671C32.0181 43.8665 30.4805 45.4041 28.5811 45.4041C27.8576 45.4041 27.2244 45.1328 26.6817 44.771C27.2244 45.7659 28.2193 46.3086 29.3952 46.3086ZM25.2346 42.962C25.1442 42.6907 25.1442 42.4194 25.1442 42.148H21.7072C21.7072 44.2283 22.6116 46.1277 24.1492 47.3939C23.1543 46.2181 22.5212 44.6805 22.5212 43.0525L25.2346 42.962Z" fill="white"/>
</g>
<defs>
<filter id="filter0_d_77_5072" x="-3.08725" y="0" width="64.0604" height="64.0602" filterUnits="userSpaceOnUse" color-interpolation-filters="sRGB">
<feFlood flood-opacity="0" result="BackgroundImageFix"/>
<feColorMatrix in="SourceAlpha" type="matrix" values="0 0 0 0 0 0 0 0 0 0 0 0 0 0 0 0 0 0 127 0" result="hardAlpha"/>
<feOffset dy="3.08725"/>
<feGaussianBlur stdDeviation="1.54362"/>
<feComposite in2="hardAlpha" operator="out"/>
<feColorMatrix type="matrix" values="0 0 0 0 0 0 0 0 0 0 0 0 0 0 0 0 0 0 0.25 0"/>
<feBlend mode="normal" in2="BackgroundImageFix" result="effect1_dropShadow_77_5072"/>
<feBlend mode="normal" in="SourceGraphic" in2="effect1_dropShadow_77_5072" result="shape"/>
</filter>
</defs>
</svg>
