<svg width="16" height="16" viewBox="0 0 16 16" fill="none" xmlns="http://www.w3.org/2000/svg">
<path d="M14.3517 3.636C14.1642 3.44853 13.9099 3.34321 13.6447 3.34321C13.3796 3.34321 13.1253 3.44853 12.9377 3.636L7.98774 8.586L3.03774 3.636C2.84914 3.45384 2.59654 3.35305 2.33434 3.35533C2.07215 3.3576 1.82133 3.46277 1.63593 3.64818C1.45052 3.83359 1.34535 4.0844 1.34307 4.3466C1.34079 4.6088 1.44159 4.8614 1.62374 5.05L7.28075 10.707C7.46827 10.8945 7.72258 10.9998 7.98774 10.9998C8.25291 10.9998 8.50722 10.8945 8.69474 10.707L14.3517 5.05C14.5392 4.86247 14.6445 4.60816 14.6445 4.343C14.6445 4.07784 14.5392 3.82353 14.3517 3.636Z" fill="#6B6B6B"/>
</svg>
