<svg width="26" height="24" viewBox="0 0 26 24" fill="none" xmlns="http://www.w3.org/2000/svg">
<path d="M0 1.02857C0 0.755777 0.117406 0.494156 0.326389 0.301261C0.535373 0.108367 0.818816 0 1.11436 0H1.94345C3.35498 0 4.20189 0.876342 4.68478 1.69097C5.00721 2.23406 5.24048 2.86354 5.42324 3.43406L5.57182 3.42857H24.1416C25.3748 3.42857 26.2663 4.51748 25.9275 5.61326L23.2114 14.4027C22.9679 15.1911 22.4527 15.8848 21.7439 16.3787C21.035 16.8726 20.1711 17.1399 19.2829 17.1401H10.4453C9.55009 17.1401 8.67963 16.8688 7.96774 16.3678C7.25584 15.8668 6.7419 15.1639 6.50491 14.3671L5.37569 10.5655L3.50356 4.73966L3.50207 4.72869C3.27029 3.95109 3.05336 3.22286 2.72945 2.67977C2.41891 2.15177 2.16929 2.05714 1.94494 2.05714H1.11436C0.818816 2.05714 0.535373 1.94878 0.326389 1.75588C0.117406 1.56299 0 1.30137 0 1.02857ZM7.53755 10.0663L8.6534 13.8226C8.87628 14.5659 9.60878 15.083 10.4453 15.083H19.2829C19.6867 15.083 20.0794 14.9615 20.4016 14.7371C20.7239 14.5127 20.9581 14.1974 21.0689 13.8391L23.6498 5.48571H6.06957L7.51675 9.9936L7.53755 10.0663ZM12.6295 21.2571C12.6295 21.9846 12.3164 22.6822 11.7591 23.1966C11.2018 23.711 10.4459 24 9.65782 24C8.86969 24 8.11384 23.711 7.55655 23.1966C6.99926 22.6822 6.68618 21.9846 6.68618 21.2571C6.68618 20.5297 6.99926 19.832 7.55655 19.3176C8.11384 18.8033 8.86969 18.5143 9.65782 18.5143C10.4459 18.5143 11.2018 18.8033 11.7591 19.3176C12.3164 19.832 12.6295 20.5297 12.6295 21.2571ZM10.4007 21.2571C10.4007 21.0753 10.3225 20.9009 10.1831 20.7723C10.0438 20.6437 9.85485 20.5714 9.65782 20.5714C9.46078 20.5714 9.27182 20.6437 9.1325 20.7723C8.99318 20.9009 8.91491 21.0753 8.91491 21.2571C8.91491 21.439 8.99318 21.6134 9.1325 21.742C9.27182 21.8706 9.46078 21.9429 9.65782 21.9429C9.85485 21.9429 10.0438 21.8706 10.1831 21.742C10.3225 21.6134 10.4007 21.439 10.4007 21.2571ZM23.0302 21.2571C23.0302 21.9846 22.7171 22.6822 22.1598 23.1966C21.6025 23.711 20.8467 24 20.0585 24C19.2704 24 18.5146 23.711 17.9573 23.1966C17.4 22.6822 17.0869 21.9846 17.0869 21.2571C17.0869 20.5297 17.4 19.832 17.9573 19.3176C18.5146 18.8033 19.2704 18.5143 20.0585 18.5143C20.8467 18.5143 21.6025 18.8033 22.1598 19.3176C22.7171 19.832 23.0302 20.5297 23.0302 21.2571ZM20.8015 21.2571C20.8015 21.0753 20.7232 20.9009 20.5839 20.7723C20.4445 20.6437 20.2556 20.5714 20.0585 20.5714C19.8615 20.5714 19.6725 20.6437 19.5332 20.7723C19.3939 20.9009 19.3156 21.0753 19.3156 21.2571C19.3156 21.439 19.3939 21.6134 19.5332 21.742C19.6725 21.8706 19.8615 21.9429 20.0585 21.9429C20.2556 21.9429 20.4445 21.8706 20.5839 21.742C20.7232 21.6134 20.8015 21.439 20.8015 21.2571Z" fill="#333333"/>
</svg>
