<svg width="20" height="20" viewBox="0 0 20 20" fill="none" xmlns="http://www.w3.org/2000/svg">
<path d="M10 11.158L1.41969 19.7383C1.26704 19.891 1.07949 19.9727 0.857049 19.9836C0.634609 19.9945 0.436157 19.9128 0.261694 19.7383C0.0872312 19.5638 0 19.3708 0 19.1593C0 18.9478 0.0872312 18.7548 0.261694 18.5803L8.842 10L0.261694 1.41969C0.109039 1.26704 0.0272594 1.07949 0.0163555 0.857049C0.00545156 0.634609 0.0872312 0.436157 0.261694 0.261694C0.436157 0.0872312 0.629157 0 0.840693 0C1.05223 0 1.24523 0.0872312 1.41969 0.261694L10 8.842L18.5803 0.261694C18.733 0.109039 18.9211 0.0272594 19.1446 0.0163555C19.3659 0.00545156 19.5638 0.0872312 19.7383 0.261694C19.9128 0.436157 20 0.629157 20 0.840693C20 1.05223 19.9128 1.24523 19.7383 1.41969L11.158 10L19.7383 18.5803C19.891 18.733 19.9727 18.9211 19.9836 19.1446C19.9945 19.3659 19.9128 19.5638 19.7383 19.7383C19.5638 19.9128 19.3708 20 19.1593 20C18.9478 20 18.7548 19.9128 18.5803 19.7383L10 11.158Z" fill="#333333"/>
</svg>
