<svg width="28" height="28" viewBox="0 0 28 28" fill="none" xmlns="http://www.w3.org/2000/svg">
<path d="M25.137 9.26279C24.8089 8.93471 24.3638 8.75041 23.8998 8.75041C23.4358 8.75041 22.9907 8.93471 22.6625 9.26279L14 17.9253L5.33754 9.26279C5.00748 8.94401 4.56543 8.76762 4.10658 8.77161C3.64774 8.7756 3.20882 8.95964 2.88435 9.28411C2.55989 9.60857 2.37584 10.0475 2.37186 10.5063C2.36787 10.9652 2.54426 11.4072 2.86304 11.7373L12.7628 21.637C13.091 21.9651 13.536 22.1494 14 22.1494C14.4641 22.1494 14.9091 21.9651 15.2373 21.637L25.137 11.7373C25.4651 11.4091 25.6494 10.9641 25.6494 10.5C25.6494 10.036 25.4651 9.59096 25.137 9.26279Z" fill="#6B6B6B"/>
</svg>
