<svg width="20" height="18" viewBox="0 0 20 18" fill="none" xmlns="http://www.w3.org/2000/svg">
<path d="M19 8.99954H6.97892M2.73578 8.99954H1M2.73578 8.99954C2.73578 8.47319 2.95925 7.96839 3.35703 7.59619C3.75481 7.224 4.29432 7.01491 4.85687 7.01491C5.41941 7.01491 5.95892 7.224 6.3567 7.59619C6.75448 7.96839 6.97795 8.47319 6.97795 8.99954C6.97795 9.5259 6.75448 10.0307 6.3567 10.4029C5.95892 10.7751 5.41941 10.9842 4.85687 10.9842C4.29432 10.9842 3.75481 10.7751 3.35703 10.4029C2.95925 10.0307 2.73578 9.5259 2.73578 8.99954ZM19 15.0145H13.4074M13.4074 15.0145C13.4074 15.5409 13.1833 16.0463 12.7855 16.4186C12.3876 16.7909 11.848 17 11.2853 17C10.7228 17 10.1832 16.79 9.78547 16.4178C9.38769 16.0456 9.16422 15.5408 9.16422 15.0145M13.4074 15.0145C13.4074 14.488 13.1833 13.9835 12.7855 13.6112C12.3876 13.239 11.848 13.0298 11.2853 13.0298C10.7228 13.0298 10.1832 13.2389 9.78547 13.6111C9.38769 13.9833 9.16422 14.4881 9.16422 15.0145M9.16422 15.0145H1M19 2.98464H15.9789M11.7358 2.98464H1M11.7358 2.98464C11.7358 2.45828 11.9593 1.95348 12.357 1.58129C12.7548 1.2091 13.2943 1 13.8569 1C14.1354 1 14.4112 1.05133 14.6686 1.15107C14.9259 1.25081 15.1597 1.397 15.3567 1.58129C15.5537 1.76558 15.7099 1.98436 15.8165 2.22515C15.9231 2.46594 15.9779 2.72401 15.9779 2.98464C15.9779 3.24526 15.9231 3.50334 15.8165 3.74413C15.7099 3.98491 15.5537 4.2037 15.3567 4.38799C15.1597 4.57228 14.9259 4.71847 14.6686 4.8182C14.4112 4.91794 14.1354 4.96927 13.8569 4.96927C13.2943 4.96927 12.7548 4.76018 12.357 4.38799C11.9593 4.0158 11.7358 3.511 11.7358 2.98464Z" stroke="#333333" stroke-width="1.5" stroke-miterlimit="10" stroke-linecap="round"/>
</svg>
