<svg width="20" height="14" viewBox="0 0 20 14" fill="none" xmlns="http://www.w3.org/2000/svg">
<path fill-rule="evenodd" clip-rule="evenodd" d="M0 1.6875C0 1.43886 0.098772 1.2004 0.274587 1.02459C0.450403 0.848772 0.68886 0.75 0.9375 0.75H19.0625C19.3111 0.75 19.5496 0.848772 19.7254 1.02459C19.9012 1.2004 20 1.43886 20 1.6875C20 1.93614 19.9012 2.1746 19.7254 2.35041C19.5496 2.52623 19.3111 2.625 19.0625 2.625H0.9375C0.68886 2.625 0.450403 2.52623 0.274587 2.35041C0.098772 2.1746 0 1.93614 0 1.6875ZM0 7C0 6.75136 0.098772 6.5129 0.274587 6.33709C0.450403 6.16127 0.68886 6.0625 0.9375 6.0625H19.0625C19.3111 6.0625 19.5496 6.16127 19.7254 6.33709C19.9012 6.5129 20 6.75136 20 7C20 7.24864 19.9012 7.4871 19.7254 7.66291C19.5496 7.83873 19.3111 7.9375 19.0625 7.9375H0.9375C0.68886 7.9375 0.450403 7.83873 0.274587 7.66291C0.098772 7.4871 0 7.24864 0 7ZM0.9375 11.375C0.68886 11.375 0.450403 11.4738 0.274587 11.6496C0.098772 11.8254 0 12.0639 0 12.3125C0 12.5611 0.098772 12.7996 0.274587 12.9754C0.450403 13.1512 0.68886 13.25 0.9375 13.25H19.0625C19.3111 13.25 19.5496 13.1512 19.7254 12.9754C19.9012 12.7996 20 12.5611 20 12.3125C20 12.0639 19.9012 11.8254 19.7254 11.6496C19.5496 11.4738 19.3111 11.375 19.0625 11.375H0.9375Z" fill="#767676"/>
</svg>
