<svg width="24" height="15" viewBox="0 0 24 15" fill="none" xmlns="http://www.w3.org/2000/svg">
<path d="M23.137 13.7372C22.8089 14.0653 22.3638 14.2496 21.8998 14.2496C21.4358 14.2496 20.9907 14.0653 20.6625 13.7372L12 5.07471L3.33754 13.7372C3.00748 14.056 2.56543 14.2324 2.10658 14.2284C1.64774 14.2244 1.20882 14.0404 0.884354 13.7159C0.559889 13.3914 0.375845 12.9525 0.371859 12.4937C0.367872 12.0348 0.544262 11.5928 0.863037 11.2627L10.7628 1.36296C11.091 1.03489 11.536 0.850586 12 0.850586C12.4641 0.850586 12.9091 1.03489 13.2373 1.36296L23.137 11.2627C23.4651 11.5909 23.6494 12.0359 23.6494 12.5C23.6494 12.964 23.4651 13.409 23.137 13.7372Z" fill="#6B6B6B"/>
</svg>
