<svg width="24" height="23" viewBox="0 0 24 23" fill="none" xmlns="http://www.w3.org/2000/svg">
<path d="M11.6588 0.179688C13.0723 0.179688 14.4508 0.618332 15.6022 1.43359C16.7534 2.24882 17.6203 3.40058 18.0826 4.72852C18.545 6.05655 18.5801 7.49524 18.1823 8.84375C17.7844 10.1921 16.9735 11.3839 15.8629 12.2529C15.8347 12.275 15.8198 12.3103 15.8248 12.3457C15.83 12.3812 15.854 12.4116 15.8873 12.4248C17.8097 13.1835 19.4881 14.4481 20.7428 16.083C21.919 17.6159 22.6816 19.4204 22.9606 21.3242L23.0104 21.707C23.0396 21.9803 22.9585 22.254 22.7858 22.4688C22.6129 22.6836 22.3617 22.822 22.0865 22.8535H21.9703C21.7108 22.855 21.46 22.7603 21.2662 22.5889C21.0967 22.4388 20.9814 22.2388 20.9362 22.0195L20.9205 21.9248L20.8639 21.5029C20.5284 19.4062 19.4754 17.4831 17.8776 16.0625C16.1733 14.5475 13.9679 13.71 11.6823 13.71C9.39645 13.71 7.19028 14.5474 5.48596 16.0625C3.8881 17.4831 2.83616 19.4062 2.50061 21.5029L2.44299 21.9248C2.41235 22.2014 2.2719 22.4546 2.05334 22.6289C1.83475 22.8032 1.55563 22.884 1.27698 22.8535C1.03299 22.8268 0.807356 22.7168 0.637329 22.5439L0.567993 22.4668C0.481293 22.3593 0.416299 22.2358 0.377563 22.1035C0.348504 22.0042 0.334389 21.9009 0.335571 21.7979L0.342407 21.6953C0.569816 19.6569 1.34898 17.7176 2.59729 16.085C3.84549 14.4525 5.51596 13.1877 7.4303 12.4248C7.46355 12.4116 7.48772 12.3811 7.4928 12.3457C7.49784 12.3104 7.48368 12.275 7.45569 12.2529C6.34504 11.3839 5.53429 10.1921 5.13635 8.84375C4.73846 7.49524 4.77265 6.05655 5.23499 4.72852C5.69729 3.40061 6.5643 2.24883 7.71545 1.43359C8.86675 0.618351 10.2454 0.179708 11.6588 0.179688ZM13.4567 2.62891C12.5983 2.27532 11.654 2.18309 10.7428 2.36328C9.83146 2.54356 8.99369 2.98806 8.33655 3.6416C7.67951 4.29506 7.23179 5.12769 7.05042 6.03418C6.86908 6.94083 6.9623 7.88134 7.31799 8.73535C7.67365 9.58913 8.27602 10.3186 9.04846 10.832C9.8211 11.3455 10.7297 11.6201 11.6588 11.6201C12.9048 11.6201 14.0999 11.1273 14.9811 10.251C15.8623 9.3746 16.3571 8.18589 16.3571 6.94629C16.357 6.0219 16.0814 5.11812 15.5651 4.34961C15.0487 3.58124 14.315 2.9825 13.4567 2.62891Z" fill="#333333" stroke="white" stroke-width="0.2" stroke-linejoin="round"/>
</svg>
